# xmcd
#
# Track frame offsets:
#	150
#	32037
#	54062
#	73565
#	92920
#	115597
#	151635
#	183380
#	210945
#	234022
#
# Disc length: 3488 seconds
#
# Revision: 1
# Processed by: cddbd v1.5.2PL0 Copyright (c) Steve Scherf et al.
# Submitted via: audiograbber 1.83.01
#
DISCID=690d9e0a
DTITLE=Ma Rainy - Town Club
DYEAR=2000
DGENRE=Blues
TTITLE0=Welcoming Love
TTITLE1=Get Some
TTITLE2=Aphrodisiac
TTITLE3=Slow Dancer
TTITLE4=Shined
TTITLE5=Two Sheets to the Wind
TTITLE6=Them Belly Full
TTITLE7=Can't Get It Right
TTITLE8=Fingerprint File
TTITLE9=The Wizard
EXTD=
EXTT0=
EXTT1=
EXTT2=
EXTT3=
EXTT4=
EXTT5=
EXTT6=
EXTT7=
EXTT8=
EXTT9=
PLAYORDER=
